<?xml version="1.0"?>
<svg width="16" height="16" xmlns="http://www.w3.org/2000/svg" xmlns:svg="http://www.w3.org/2000/svg">
 <g class="layer">
  <title>Layer 1</title>
  <path d="m3,1c-1.11,0 -2,0.89 -2,2l0,10c0,1.11 0.89,2 2,2l10,0c1.11,0 2,-0.89 2,-2l0,-10c0,-1.11 -0.89,-2 -2,-2l-10,0zm8.28,3.84c0.25,0 0.51,0.1 0.7,0.3c0.4,0.39 0.4,1.02 0,1.41l-4.24,4.24c-0.39,0.39 -0.99,0.42 -1.35,0.07l-0.06,-0.07l-2.19,-2.18c-0.35,-0.36 -0.32,-0.96 0.07,-1.35c0.39,-0.39 0.99,-0.42 1.35,-0.06l1.48,1.47l3.53,-3.53c0.2,-0.2 0.45,-0.3 0.71,-0.3z" fill="#363636" id="svg_1"/>
 </g>
</svg>