<?xml version="1.0" encoding="UTF-8"?>
<svg xmlns="http://www.w3.org/2000/svg" xmlns:xlink="http://www.w3.org/1999/xlink" width="16px" height="16px" viewBox="0 0 16 16" version="1.1">
<g id="surface1">
<path style=" stroke:none;fill-rule:nonzero;fill:rgb(0%,0%,0%);fill-opacity:1;" d="M 8 11.332031 C 8.738281 11.332031 9.332031 10.738281 9.332031 10 C 9.332031 9.261719 8.734375 8.667969 8 8.667969 C 7.261719 8.667969 6.667969 9.261719 6.667969 10 C 6.667969 10.738281 7.261719 11.332031 8 11.332031 M 12 5.332031 C 12.738281 5.332031 13.332031 5.929688 13.332031 6.667969 L 13.332031 13.332031 C 13.332031 14.070312 12.738281 14.667969 12 14.667969 L 4 14.667969 C 3.261719 14.667969 2.667969 14.070312 2.667969 13.332031 L 2.667969 6.667969 C 2.667969 5.925781 3.265625 5.332031 4 5.332031 L 4.667969 5.332031 L 4.667969 4 C 4.667969 2.160156 6.160156 0.667969 8 0.667969 C 9.839844 0.667969 11.332031 2.160156 11.332031 4 L 11.332031 5.332031 L 12 5.332031 M 8 2 C 6.894531 2 6 2.894531 6 4 L 6 5.332031 L 10 5.332031 L 10 4 C 10 2.894531 9.105469 2 8 2 Z M 8 2 "/>
</g>
</svg>
