<?xml version="1.0"?>
<svg width="16" height="16" xmlns="http://www.w3.org/2000/svg" xmlns:svg="http://www.w3.org/2000/svg" version="1.1">
 <defs>
  <style id="current-color-scheme" type="text/css">.ColorScheme-Text { color:#363636; }</style>
 </defs>
 <g class="layer">
  <title>Layer 1</title>
  <path class="ColorScheme-Text" d="m8,0c-2.22,0 -4,1.78 -4,4l0,2l1,0l0,-2c0,-1.66 1.34,-3 3,-3s3,1.34 3,3l0,2l1,0l0,-2c0,-2.22 -1.78,-4 -4,-4z" fill="currentColor" id="svg_1"/>
  <path class="ColorScheme-Text" d="m4,6c-1.11,0 -2,0.89 -2,2l0,5c0,1.11 0.89,2 2,2l8,0c1.11,0 2,-0.89 2,-2l0,-5c0,-1.11 -0.89,-2 -2,-2l-8,0zm-0.79,7.96l8.58,-4.25c0.55,0 -3.42,-2.8 -3.42,-2.25l0.08,2.04c0,0.55 1.51,-2.17 0.96,-2.17l-5.71,4.58c-0.55,0 -0.71,1.63 -0.71,1.08l0,-5c0,-0.55 -0.34,5.96 0.21,5.96z" fill="currentColor" id="svg_2"/>
 </g>
</svg>