<?xml version="1.0"?>
<svg width="16" height="16" xmlns="http://www.w3.org/2000/svg" xmlns:svg="http://www.w3.org/2000/svg" version="1.1">
 <g class="layer">
  <title>Layer 1</title>
  <g id="surface1">
   <path d="m8,11.33c0.74,0 1.33,-0.59 1.33,-1.33c0,-0.74 -0.6,-1.33 -1.33,-1.33c-0.74,0 -1.33,0.59 -1.33,1.33c0,0.74 0.59,1.33 1.33,1.33m4,-6c0.74,0 1.33,0.6 1.33,1.34l0,6.66c0,0.74 -0.59,1.34 -1.33,1.34l-8,0c-0.74,0 -1.33,-0.6 -1.33,-1.34l0,-6.66c0,-0.74 0.6,-1.34 1.33,-1.34l0.67,0l0,-1.33c0,-1.84 1.49,-3.33 3.33,-3.33c1.84,0 3.33,1.49 3.33,3.33l0,1.33l0.67,0m-4,-3.33c-1.11,0 -2,0.89 -2,2l0,1.33l4,0l0,-1.33c0,-1.11 -0.89,-2 -2,-2zm0,0" fill="#363636" fill-rule="nonzero" id="svg_1"/>
  </g>
 </g>
</svg>