<?xml version="1.0"?>
<svg width="16" height="16" xmlns="http://www.w3.org/2000/svg" xmlns:svg="http://www.w3.org/2000/svg" version="1.1">

 <g class="layer">
  <title>Layer 1</title>
  <path d="m4.84,1.84c-0.13,0 -0.25,0.05 -0.35,0.15c-0.2,0.19 -0.2,0.51 0,0.71l5.3,5.3l-5.3,5.3c-0.2,0.2 -0.2,0.52 0,0.71c0.19,0.2 0.51,0.2 0.71,0l5.65,-5.66c0.2,-0.19 0.2,-0.51 0,-0.7l-5.65,-5.66c-0.1,-0.1 -0.23,-0.15 -0.36,-0.15z" fill="#333" id="svg_1" stroke-linecap="round" stroke-linejoin="round" stroke-width="1.81"/>
  <path d="m4.34,1.82c-0.13,0 -0.25,0.05 -0.35,0.15c-0.2,0.19 -0.2,0.51 0,0.71l5.3,5.3l-5.3,5.3c-0.2,0.2 -0.2,0.52 0,0.71c0.19,0.2 0.51,0.2 0.71,0l5.65,-5.66c0.2,-0.19 0.2,-0.51 0,-0.7l-5.65,-5.66c-0.1,-0.1 -0.23,-0.15 -0.36,-0.15z" fill="#333" id="svg_3" stroke-linecap="round" stroke-linejoin="round" stroke-width="1.81"/>
 </g>
</svg>