<?xml version="1.0"?>
<svg width="16" height="16" xmlns="http://www.w3.org/2000/svg" xmlns:svg="http://www.w3.org/2000/svg" version="1.1">

 <g class="layer">
  <title>Layer 1</title>
  <path d="m10.16,1.84c0.13,0 0.25,0.05 0.35,0.15c0.2,0.19 0.2,0.51 0,0.71l-5.3,5.3l5.3,5.3c0.2,0.2 0.2,0.52 0,0.71c-0.19,0.2 -0.51,0.2 -0.7,0l-5.66,-5.66c-0.2,-0.19 -0.2,-0.51 0,-0.7l5.66,-5.66c0.09,-0.1 0.22,-0.15 0.35,-0.15z" fill="#333" id="svg_1" stroke-linecap="round" stroke-linejoin="round" stroke-width="1.81"/>
  <path d="m10.62,1.84c0.13,0 0.25,0.05 0.35,0.15c0.2,0.19 0.2,0.51 0,0.71l-5.3,5.3l5.3,5.3c0.2,0.2 0.2,0.52 0,0.71c-0.19,0.2 -0.51,0.2 -0.7,0l-5.66,-5.66c-0.2,-0.19 -0.2,-0.51 0,-0.7l5.66,-5.66c0.09,-0.1 0.22,-0.15 0.35,-0.15z" fill="#333" id="svg_2" stroke-linecap="round" stroke-linejoin="round" stroke-width="1.81"/>
 </g>
</svg>