<?xml version="1.0"?>
<svg width="16" height="16" xmlns="http://www.w3.org/2000/svg" xmlns:svg="http://www.w3.org/2000/svg" version="1.1">
 <g class="layer">
  <title>Layer 1</title>
  <g id="surface1">
   <path d="m5.33,8.67c-1.24,0 -2.27,0.85 -2.57,2l-1.43,0l0,1.33l1.43,0c0.3,1.15 1.33,2 2.57,2c1.24,0 2.28,-0.85 2.58,-2l6.76,0l0,-1.33l-6.76,0c-0.3,-1.15 -1.34,-2 -2.58,-2m0,4c-0.73,0 -1.33,-0.6 -1.33,-1.34c0,-0.73 0.6,-1.33 1.33,-1.33c0.74,0 1.34,0.6 1.34,1.33c0,0.74 -0.6,1.34 -1.34,1.34m7.91,-8.67c-0.3,-1.15 -1.33,-2 -2.57,-2c-1.24,0 -2.28,0.85 -2.58,2l-6.76,0l0,1.33l6.76,0c0.3,1.15 1.34,2 2.58,2c1.24,0 2.27,-0.85 2.57,-2l1.43,0l0,-1.33l-1.43,0m-2.57,2c-0.74,0 -1.34,-0.6 -1.34,-1.33c0,-0.74 0.6,-1.34 1.34,-1.34c0.73,0 1.33,0.6 1.33,1.34c0,0.73 -0.6,1.33 -1.33,1.33zm0,0" fill="#363636" fill-rule="nonzero" id="svg_1"/>
  </g>
 </g>
</svg>