<?xml version="1.0" encoding="UTF-8"?>
<svg xmlns="http://www.w3.org/2000/svg" xmlns:xlink="http://www.w3.org/1999/xlink" width="16px" height="16px" viewBox="0 0 16 16" version="1.1">
<g id="surface1">
<path style=" stroke:none;fill-rule:nonzero;fill:rgb(0%,0%,0%);fill-opacity:1;" d="M 6 3.878906 L 4.90625 2.773438 C 5.394531 1.539062 6.59375 0.667969 8 0.667969 C 9.839844 0.667969 11.332031 2.160156 11.332031 4 L 11.332031 5.332031 L 12 5.332031 C 12.738281 5.332031 13.332031 5.933594 13.332031 6.667969 L 13.332031 11.199219 L 7.464844 5.332031 L 10 5.332031 L 10 4 C 10 2.894531 9.105469 2 8 2 C 6.941406 2 6.074219 2.832031 6 3.878906 M 14.738281 14.308594 L 13.894531 15.152344 L 12.972656 14.234375 C 12.734375 14.5 12.386719 14.667969 12 14.667969 L 4 14.667969 C 3.261719 14.667969 2.667969 14.074219 2.667969 13.332031 L 2.667969 6.667969 C 2.667969 5.925781 3.265625 5.332031 4 5.332031 L 4.074219 5.332031 L 0.738281 2 L 1.59375 1.152344 L 14.738281 14.308594 M 9.234375 10.492188 L 7.507812 8.765625 C 7 8.960938 6.667969 9.441406 6.667969 10 C 6.667969 10.738281 7.265625 11.332031 8 11.332031 C 8.558594 11.332031 9.039062 11 9.234375 10.492188 Z M 9.234375 10.492188 "/>
</g>
</svg>
