<?xml version="1.0"?>
<svg width="16" height="16" xmlns="http://www.w3.org/2000/svg" xmlns:svg="http://www.w3.org/2000/svg" version="1.1">
 <g class="layer">
  <title>Layer 1</title>
  <path class="ColorScheme-Text" d="m8,0c-2.22,0 -4,1.78 -4,4l0.06,0.44l0.84,0.84l0.09,-1.28c0,-1.66 1.34,-3 3,-3s3,1.34 3,3l0,2l1,0l0,-2c0,-2.22 -1.78,-4 -4,-4z" fill="#000000" id="svg_1" opacity="0.75"/>
  <path class="ColorScheme-Text" d="m4,6c-1.11,0 -2,0.89 -2,2l0,5c0,1.11 0.89,2 2,2l8,0c1.11,0 2,-0.89 2,-2l0,-5c0,-1.11 -0.89,-2 -2,-2l-8,0zm0,1l8,0c0.55,0 -5.03,-0.77 -5.03,-0.22l6.03,6.22c0,0.55 -0.45,1 -1,1l-7.81,-7.75c-0.55,0 -1.31,1.3 -1.31,0.75l0.13,1c0,-0.55 0.45,-1 1,-1z" fill="#000000" id="svg_2" opacity="0.75"/>
  <rect class="ColorScheme-Text" fill="currentColor" height="1" id="svg_3" transform="matrix(1, 0, 0, 1, 0, 0) matrix(0.707107, 0.707107, -0.707107, 0.707107, 0.355014, -0.163505)" width="20" x="1.75" y="-0.13"/>
 </g>

</svg>