<?xml version="1.0" encoding="UTF-8"?>
<svg xmlns="http://www.w3.org/2000/svg" xmlns:xlink="http://www.w3.org/1999/xlink" width="16px" height="16px" viewBox="0 0 16 16" version="1.1">
<g id="surface1">
<path style=" stroke:none;fill-rule:nonzero;fill:rgb(0%,0%,0%);fill-opacity:1;" d="M 6.667969 11.332031 C 7.398438 11.332031 8 10.734375 8 10 C 8 9.265625 7.398438 8.667969 6.667969 8.667969 C 5.933594 8.667969 5.332031 9.265625 5.332031 10 C 5.332031 10.734375 5.933594 11.332031 6.667969 11.332031 M 10.667969 5.332031 C 11.398438 5.332031 12 5.933594 12 6.667969 L 12 13.332031 C 12 14.066406 11.398438 14.667969 10.667969 14.667969 L 2.667969 14.667969 C 1.933594 14.667969 1.332031 14.066406 1.332031 13.332031 L 1.332031 6.667969 C 1.332031 5.933594 1.933594 5.332031 2.667969 5.332031 L 3.332031 5.332031 L 3.332031 4 C 3.332031 2.132812 4.800781 0.667969 6.667969 0.667969 C 8.535156 0.667969 10 2.132812 10 4 L 10 5.332031 L 10.667969 5.332031 M 6.667969 2 C 5.535156 2 4.667969 2.867188 4.667969 4 L 4.667969 5.332031 L 8.667969 5.332031 L 8.667969 4 C 8.667969 2.867188 7.800781 2 6.667969 2 M 14.667969 8.667969 L 13.332031 8.667969 L 13.332031 4.667969 L 14.667969 4.667969 L 14.667969 8.667969 M 14.667969 11.332031 L 13.332031 11.332031 L 13.332031 10 L 14.667969 10 Z M 14.667969 11.332031 "/>
</g>
</svg>
