<?xml version="1.0"?>
<svg width="16" height="16" xmlns="http://www.w3.org/2000/svg" xmlns:svg="http://www.w3.org/2000/svg" version="1.1">
 <g class="layer">
  <title>Layer 1</title>
  <g id="surface1">
   <path d="m6,3.88l-1.09,-1.11c0.48,-1.23 1.68,-2.1 3.09,-2.1c1.84,0 3.33,1.49 3.33,3.33l0,1.33l0.67,0c0.74,0 1.33,0.6 1.33,1.34l0,4.53l-5.87,-5.87l2.54,0l0,-1.33c0,-1.11 -0.89,-2 -2,-2c-1.06,0 -1.93,0.83 -2,1.88m8.74,10.43l-0.85,0.84l-0.92,-0.92c-0.24,0.27 -0.58,0.44 -0.97,0.44l-8,0c-0.74,0 -1.33,-0.6 -1.33,-1.34l0,-6.66c0,-0.74 0.6,-1.34 1.33,-1.34l0.07,0l-3.33,-3.33l0.85,-0.85l13.15,13.16m-5.51,-3.82l-1.72,-1.72c-0.51,0.19 -0.84,0.67 -0.84,1.23c0,0.74 0.6,1.33 1.33,1.33c0.56,0 1.04,-0.33 1.23,-0.84zm0,0" fill="#363636" fill-rule="nonzero" id="svg_1"/>
  </g>
 </g>
</svg>