<?xml version="1.0"?>
<svg width="16" height="16" xmlns="http://www.w3.org/2000/svg" xmlns:svg="http://www.w3.org/2000/svg" version="1.1">
 <g class="layer">
  <title>Layer 1</title>
  <g id="surface1">
   <path d="m6.67,11.33c0.73,0 1.33,-0.6 1.33,-1.33c0,-0.73 -0.6,-1.33 -1.33,-1.33c-0.74,0 -1.34,0.6 -1.34,1.33c0,0.73 0.6,1.33 1.34,1.33m4,-6c0.73,0 1.33,0.6 1.33,1.34l0,6.66c0,0.74 -0.6,1.34 -1.33,1.34l-8,0c-0.74,0 -1.34,-0.6 -1.34,-1.34l0,-6.66c0,-0.74 0.6,-1.34 1.34,-1.34l0.66,0l0,-1.33c0,-1.87 1.47,-3.33 3.34,-3.33c1.87,0 3.33,1.46 3.33,3.33l0,1.33l0.67,0m-4,-3.33c-1.13,0 -2,0.87 -2,2l0,1.33l4,0l0,-1.33c0,-1.13 -0.87,-2 -2,-2m8,6.67l-1.34,0l0,-4l1.34,0l0,4m0,2.66l-1.34,0l0,-1.33l1.34,0l0,1.33zm0,0" fill="#363636" fill-rule="nonzero" id="svg_1"/>
  </g>
 </g>
</svg>