<?xml version="1.0"?>
<svg width="16" height="16" xmlns="http://www.w3.org/2000/svg" xmlns:svg="http://www.w3.org/2000/svg">

 <g class="layer">
  <title>Layer 1</title>
  <path d="m8.06,0.84a0.5,0.5 0 0 0 -0.52,0.28l-2.04,4.15l-4.57,0.68a0.5,0.5 0 0 0 -0.28,0.85l3.32,3.22l-0.77,4.56a0.5,0.5 0 0 0 0.73,0.53l4.09,-2.17l4.09,2.14a0.5,0.5 0 0 0 0.73,-0.52l-0.79,-4.56l3.3,-3.24a0.5,0.5 0 0 0 -0.28,-0.85l-4.58,-0.65l-2.05,-4.15a0.5,0.5 0 0 0 -0.38,-0.27zm-0.07,1.63l1.72,3.47a0.5,0.5 0 0 0 0.38,0.27l3.84,0.55l-2.77,2.71a0.5,0.5 0 0 0 -0.14,0.44l0.66,3.82l-3.43,-1.8a0.5,0.5 0 0 0 -0.47,0.01l-3.43,1.81l0.65,-3.82a0.5,0.5 0 0 0 -0.14,-0.45l-2.78,-2.69l3.83,-0.57a0.5,0.5 0 0 0 0.37,-0.28l1.71,-3.47z" fill="#383838" id="svg_1"/>
 </g>
</svg>