<?xml version="1.0"?>
<svg width="17" height="16" xmlns="http://www.w3.org/2000/svg" xmlns:svg="http://www.w3.org/2000/svg">

 <g class="layer">
  <title>Layer 1</title>
  <path d="m15.37,15l1.63,0l-3.63,-8.54a0.75,0.75 0 0 0 -0.69,-0.46l-0.82,0c-0.3,0 -0.58,0.18 -0.7,0.46l-1.84,4.34l-0.01,-0.01a10.8,10.8 0 0 1 -3.27,-2.2a12.38,12.38 0 0 0 2.54,-4.18l0.5,-1.41l0.92,0l0,-1.5l-4.25,0l0,-1.5l-1.5,0l0,1.5l-4.25,0l0,1.5l7.5,0l-0.33,0.91c-0.47,1.31 -1.2,2.52 -2.13,3.56c-0.7,-0.9 -1.25,-1.9 -1.63,-2.97l-1.61,0l0.18,0.48a12.43,12.43 0 0 0 1.97,3.56c-0.9,0.75 -1.89,1.35 -2.96,1.78l0,1.58a12.3,12.3 0 0 0 3.96,-2.26a12.31,12.31 0 0 0 3.77,2.54l-1.19,2.82l1.64,0l1.06,-2.5l4.08,0l1.06,2.5zm-4.5,-4l1.4,-3.3l1.4,3.3l-2.8,0z" fill="#363636" fill-rule="nonzero" id="svg_1"/>
 </g>
</svg>