<?xml version="1.0"?>
<svg width="16" height="16" xmlns="http://www.w3.org/2000/svg" xmlns:svg="http://www.w3.org/2000/svg" version="1.1">
 <g class="layer">
  <title>Layer 1</title>
  <path d="m4.07,0l0,1.87l-4.07,0l0,0.94l7.22,0c-0.34,1.14 -1.07,2.97 -2.64,4.64c-1.18,-1.26 -1.89,-2.63 -2.31,-3.7l-1.07,0c0.45,1.23 1.26,2.87 2.69,4.39c-0.78,0.7 -1.72,1.35 -2.87,1.88l0,1.04c1.45,-0.61 2.62,-1.39 3.56,-2.25c0.99,0.89 2.22,1.7 3.76,2.32l-1.92,3.85l1.12,0l1.4,-2.81l4.52,0l1.4,2.81l1.12,0l-4.22,-8.42l0,0l-1.12,0l-1.87,3.72c-1.44,-0.57 -2.58,-1.32 -3.49,-2.15c1.83,-1.94 2.65,-4.08 2.98,-5.31l0.91,0l0,-0.94l-4.07,0l0,-1.87l-1.02,0zm7.13,7.66l1.79,3.56l-3.58,0l1.79,-3.56z" fill="#363636" id="svg_1"/>
 </g>

</svg>