<?xml version="1.0"?>
<svg width="16" height="16" xmlns="http://www.w3.org/2000/svg" xmlns:svg="http://www.w3.org/2000/svg" version="1.1">
 <g class="layer">
  <title>Layer 1</title>
  <g id="surface1">
   <path d="m7.89,6l2.11,2.11c0,-0.04 0,-0.07 0,-0.11c0,-1.11 -0.89,-2 -2,-2c-0.04,0 -0.07,0 -0.11,0m-2.87,0.54l1.03,1.03c-0.03,0.14 -0.05,0.28 -0.05,0.43c0,1.11 0.89,2 2,2c0.15,0 0.29,-0.02 0.43,-0.05l1.03,1.03c-0.44,0.22 -0.93,0.35 -1.46,0.35c-1.84,0 -3.33,-1.49 -3.33,-3.33c0,-0.53 0.13,-1.02 0.35,-1.46m-3.69,-3.69l1.82,1.82c-1.1,0.87 -1.96,2 -2.48,3.33c1.15,2.93 4,5 7.33,5c1.04,0 2.02,-0.2 2.92,-0.56l0.29,0.28l1.94,1.95l0.85,-0.85l-11.82,-11.82m5.82,2.67c1.84,0 3.33,1.49 3.33,3.33c0,0.43 -0.08,0.84 -0.24,1.21l1.96,1.96c1,-0.84 1.8,-1.93 2.28,-3.17c-1.15,-2.93 -4,-5 -7.33,-5c-0.93,0 -1.83,0.17 -2.67,0.46l1.45,1.44c0.38,-0.15 0.79,-0.23 1.22,-0.23zm0,0" fill="#363636" fill-rule="nonzero" id="svg_1"/>
  </g>
 </g>
</svg>