<!--Generator: Apple Native CoreSVG 175.5-->
<!DOCTYPE svg
PUBLIC "-//W3C//DTD SVG 1.1//EN"
       "http://www.w3.org/Graphics/SVG/1.1/DTD/svg11.dtd">
<svg version="1.1" xmlns="http://www.w3.org/2000/svg" xmlns:xlink="http://www.w3.org/1999/xlink" width="19.9219" height="19.9316">
 <g color="context-color" fill="context-fill" fill-opacity='context-fill-opacity'>
  <rect height="19.9316" opacity="0" width="19.9219" x="0" y="0"/>
  <path d="M9.96094 19.9219C15.4102 19.9219 19.9219 15.4004 19.9219 9.96094C19.9219 4.51172 15.4004 0 9.95117 0C4.51172 0 0 4.51172 0 9.96094C0 15.4004 4.52148 19.9219 9.96094 19.9219ZM9.96094 18.2617C5.35156 18.2617 1.66992 14.5703 1.66992 9.96094C1.66992 5.35156 5.3418 1.66016 9.95117 1.66016C14.5605 1.66016 18.2617 5.35156 18.2617 9.96094C18.2617 14.5703 14.5703 18.2617 9.96094 18.2617Z"/>
  <path d="M5.40039 11.377C6.18164 11.377 6.81641 10.7422 6.81641 9.95117C6.81641 9.16992 6.17188 8.53516 5.40039 8.53516C4.60938 8.53516 3.97461 9.16992 3.97461 9.95117C3.97461 10.7422 4.60938 11.377 5.40039 11.377Z"/>
  <path d="M9.95117 11.377C10.7324 11.377 11.377 10.7422 11.377 9.95117C11.377 9.16992 10.7324 8.53516 9.95117 8.53516C9.16992 8.53516 8.52539 9.16992 8.52539 9.95117C8.52539 10.7422 9.16992 11.377 9.95117 11.377Z"/>
  <path d="M14.5117 11.377C15.293 11.377 15.9277 10.7422 15.9277 9.95117C15.9277 9.16992 15.293 8.53516 14.5117 8.53516C13.7207 8.53516 13.0859 9.16992 13.0859 9.95117C13.0859 10.7422 13.7207 11.377 14.5117 11.377Z"/>
 </g>
</svg>
